{
.appVersion = "3109";
copyright = "Copyright 2019-2022 Google Inc. All Rights Reserved.";
customParameters = (
{
name = glyphOrder;
value = (
.notdef,
NULL,
CR,
space,
uni00A0,
u10F00,
u10F01,
u10F02,
u10F03,
u10F04,
u10F05,
u10F06,
u10F07,
u10F08,
u10F09,
u10F0A,
u10F0B,
u10F0C,
u10F0D,
u10F0E,
u10F0F,
u10F10,
u10F11,
u10F12,
u10F13,
u10F14,
u10F15,
u10F16,
u10F17,
u10F18,
u10F19,
u10F1A,
u10F1B,
u10F1C,
u10F1D,
u10F1E,
u10F1F,
u10F20,
u10F21,
u10F22,
u10F23,
u10F24,
u10F25,
u10F26,
u10F27,
Aleph.alt,
HeFin.alt,
Lamedh.altA,
Lamedh.altB,
Samekh.alt,
AyinAlt.altA,
AyinAlt.altB,
Pe.alt,
SadheFin.alt,
Taw.alt,
TawFin.alt,
TawFinV.alt,
Kaph.cut,
Pe.cut,
Pe.altcut
);
},
{
name = unicodeRanges;
value = (
0,
1,
57
);
},
{
name = "Has WWS Names";
value = 1;
},
{
name = fsType;
value = (
);
},
{
name = description;
value = "Designed by Monotype design team.";
},
{
name = license;
value = "This Font Software is licensed under the SIL Open Font License, Version 1.1. This Font Software is distributed on an \"AS IS\" BASIS, WITHOUT WARRANTIES OR CONDITIONS OF ANY KIND, either express or implied. See the SIL Open Font License for the specific language, permissions and limitations governing your use of this Font Software.";
},
{
name = licenseURL;
value = "http://scripts.sil.org/OFL";
},
{
name = vendorID;
value = GOOG;
},
{
name = trademark;
value = "Noto is a trademark of Google Inc.";
},
{
name = versionString;
value = "Version 2.001";
}
);
date = "2019-09-05 17:04:45 +0000";
designer = "Monotype Design Team";
designerURL = "http://www.monotype.com/studio";
disablesAutomaticAlignment = 1;
disablesNiceNames = 1;
familyName = "Noto Sans Old Sogdian";
featurePrefixes = (
{
code = "languagesystem DFLT dflt;\012languagesystem sogo dflt;\012";
name = Languagesystems;
}
);
features = (
{
automatic = 1;
code = "feature salt;\012";
name = aalt;
},
{

glyphs = (
{
glyphname = .notdef;
lastChange = "2019-09-16 14:13:48 +0000";
layers = (
{
layerId = UUID0;
paths = (
{
closed = 1;
nodes = (
"94 0 LINE",
"505 0 LINE",
"505 714 LINE",
"94 714 LINE"
);
},
{
closed = 1;
nodes = (
"145 51 LINE",
"145 663 LINE",
"454 663 LINE",
"454 51 LINE"
);
}
);
width = 600;
}
);
},
{
glyphname = u10F00;
lastChange = "2019-09-16 14:13:48 +0000";
layers = (
{
layerId = UUID0;
paths = (
{
closed = 1;
nodes = (
"473 0 LINE",
"473 65 LINE",
"431 82 OFFCURVE",
"344 156 OFFCURVE",
"305 198 CURVE",
"375 255 OFFCURVE",
"447 332 OFFCURVE",
"484 392 CURVE",
"423 431 LINE",
"385 375 OFFCURVE",
"319 305 OFFCURVE",
"257 249 CURVE",
"204 312 OFFCURVE",
"164 372 OFFCURVE",
"138 427 CURVE",
"70 391 LINE",
"126 268 OFFCURVE",
"255 124 OFFCURVE",
"338 78 CURVE",
"338 72 LINE",
"318 73 OFFCURVE",
"210 76 OFFCURVE",
"193 76 CURVE SMOOTH",
"30 76 LINE",
"30 0 LINE"
);
}
);
width = 529;
}
);
leftKerningGroup = u10F00;
unicode = 10F00;
script = "";
category = Letter;
subCategory = Other;
},
{
glyphname = u10F01;
lastChange = "2019-09-16 14:13:48 +0000";
layers = (
{
layerId = UUID0;
paths = (
{
closed = 1;
nodes = (
"666 0 LINE",
"666 65 LINE",
"624 82 OFFCURVE",
"537 156 OFFCURVE",
"498 198 CURVE",
"568 255 OFFCURVE",
"640 332 OFFCURVE",
"677 392 CURVE",
"616 431 LINE",
"578 375 OFFCURVE",
"513 306 OFFCURVE",
"451 250 CURVE",
"398 313 OFFCURVE",
"356 372 OFFCURVE",
"331 427 CURVE",
"263 391 LINE",
"316 268 OFFCURVE",
"445 124 OFFCURVE",
"528 78 CURVE",
"528 72 LINE SMOOTH",
"508 73 OFFCURVE",
"400 76 OFFCURVE",
"383 76 CURVE SMOOTH",
"20 76 LINE",
"20 0 LINE"
);
}
);
width = 722;
}
);
leftKerningGroup = u10F00;
unicode = 10F01;
script = "";
category = Letter;
subCategory = Other;
},
{
glyphname = u10F02;
lastChange = "2019-09-16 14:13:48 +0000";
layers = (
{
layerId = UUID0;
paths = (
{
closed = 1;
nodes = (
"204 293 OFFCURVE",
"130 307 OFFCURVE",
"130 402 CURVE SMOOTH",
"130 407 OFFCURVE",
"130 410 OFFCURVE",
"131 424 CURVE",
"63 424 LINE",
"60 411 OFFCURVE",
"58 389 OFFCURVE",
"58 375 CURVE SMOOTH",
"58 239 OFFCURVE",
"181 219 OFFCURVE",
"289 219 CURVE SMOOTH",
"302 219 OFFCURVE",
"323 219 OFFCURVE",
"350 221 CURVE",
"347 159 OFFCURVE",
"335 122 OFFCURVE",
"306 102 CURVE SMOOTH",
"283 86 OFFCURVE",
"240 76 OFFCURVE",
"193 76 CURVE SMOOTH",
"25 76 LINE",
"25 0 LINE",
"181 0 LINE SMOOTH",
"259 0 OFFCURVE",
"316 15 OFFCURVE",
"349 38 CURVE SMOOTH",
"407 78 OFFCURVE",
"427 161 OFFCURVE",
"427 250 CURVE SMOOTH",
"427 307 OFFCURVE",
"425 365 OFFCURVE",
"419 426 CURVE",
"343 422 LINE",
"346 380 OFFCURVE",
"349 332 OFFCURVE",
"350 295 CURVE",
"330 293 OFFCURVE",
"312 293 OFFCURVE",
"290 293 CURVE SMOOTH"
);
}
);
width = 467;
}
);
leftKerningGroup = u10F02;
unicode = 10F02;
script = "";
category = Letter;
subCategory = Other;
},
{
glyphname = u10F03;
lastChange = "2019-09-16 14:13:48 +0000";
layers = (
{
layerId = UUID0;
paths = (
{
closed = 1;
nodes = (
"438 293 OFFCURVE",
"364 307 OFFCURVE",
"364 402 CURVE SMOOTH",
"364 407 OFFCURVE",
"364 410 OFFCURVE",
"365 424 CURVE",
"297 424 LINE",
"294 411 OFFCURVE",
"292 389 OFFCURVE",
"292 375 CURVE SMOOTH",
"292 239 OFFCURVE",
"415 219 OFFCURVE",
"523 219 CURVE SMOOTH",
"536 219 OFFCURVE",
"557 219 OFFCURVE",
"584 221 CURVE",
"581 159 OFFCURVE",
"569 122 OFFCURVE",
"540 102 CURVE SMOOTH",
"517 86 OFFCURVE",
"474 76 OFFCURVE",
"427 76 CURVE SMOOTH",
"20 76 LINE",
"20 0 LINE",
"415 0 LINE SMOOTH",
"493 0 OFFCURVE",
"550 15 OFFCURVE",
"583 38 CURVE SMOOTH",
"641 78 OFFCURVE",
"661 161 OFFCURVE",
"661 250 CURVE SMOOTH",
"661 307 OFFCURVE",
"659 365 OFFCURVE",
"653 426 CURVE",
"577 422 LINE",
"580 380 OFFCURVE",
"583 332 OFFCURVE",
"584 295 CURVE",
"564 293 OFFCURVE",
"546 293 OFFCURVE",
"524 293 CURVE SMOOTH"
);
}
);
width = 701;
}
);
leftKerningGroup = u10F02;
unicode = 10F03;
script = "";
category = Letter;
subCategory = Other;
},
{
glyphname = u10F04;
lastChange = "2019-09-16 14:13:48 +0000";
layers = (
{
layerId = UUID0;
paths = (
{
closed = 1;
nodes = (
"131 337 LINE",
"133 340 LINE",
"194 275 LINE SMOOTH",
"248 218 OFFCURVE",
"326 139 OFFCURVE",
"388 80 CURVE SMOOTH",
"448 22 OFFCURVE",
"474 1 OFFCURVE",
"489 -6 CURVE",
"561 -4 LINE",
"547 23 OFFCURVE",
"534 60 OFFCURVE",
"525 101 CURVE SMOOTH",
"519 126 OFFCURVE",
"515 177 OFFCURVE",
"515 200 CURVE SMOOTH",
"515 296 OFFCURVE",
"541 346 OFFCURVE",
"608 364 CURVE",
"608 440 LINE",
"488 416 OFFCURVE",
"441 326 OFFCURVE",
"441 203 CURVE SMOOTH",
"441 192 OFFCURVE",
"443 147 OFFCURVE",
"450 125 CURVE",
"447 124 LINE",
"421 150 OFFCURVE",
"387 186 OFFCURVE",
"348 227 CURVE SMOOTH",
"296 283 OFFCURVE",
"237 345 OFFCURVE",
"197 384 CURVE SMOOTH",
"166 414 OFFCURVE",
"147 425 OFFCURVE",
"117 425 CURVE SMOOTH",
"86 425 OFFCURVE",
"64 413 OFFCURVE",
"61 380 CURVE SMOOTH",
"58 350 OFFCURVE",
"55 235 OFFCURVE",
"55 190 CURVE SMOOTH",
"55 158 OFFCURVE",
"56 61 OFFCURVE",
"59 0 CURVE",
"135 0 LINE",
"132 76 OFFCURVE",
"131 176 OFFCURVE",
"131 209 CURVE SMOOTH"
);
}
);
width = 618;
}
);
unicode = 10F04;
script = "";
category = Letter;
subCategory = Other;
},
{
glyphname = u10F05;
lastChange = "2019-09-16 14:13:48 +0000";
layers = (
{
layerId = UUID0;
paths = (
{
closed = 1;
nodes = (
"506 0 LINE",
"503 76 OFFCURVE",
"502 176 OFFCURVE",
"502 209 CURVE SMOOTH",
"502 242 OFFCURVE",
"503 350 OFFCURVE",
"506 426 CURVE",
"430 422 LINE",
"428 384 OFFCURVE",
"426 290 OFFCURVE",
"426 273 CURVE",
"386 260 OFFCURVE",
"359 253 OFFCURVE",
"296 237 CURVE",
"298 256 OFFCURVE",
"298 265 OFFCURVE",
"298 269 CURVE SMOOTH",
"298 356 OFFCURVE",
"252 430 OFFCURVE",
"140 430 CURVE SMOOTH",
"106 430 OFFCURVE",
"60 419 OFFCURVE",
"30 394 CURVE",
"43 334 LINE",
"79 358 OFFCURVE",
"114 361 OFFCURVE",
"131 361 CURVE SMOOTH",
"177 361 OFFCURVE",
"221 336 OFFCURVE",
"221 259 CURVE SMOOTH",
"221 244 OFFCURVE",
"220 230 OFFCURVE",
"218 218 CURVE",
"172 206 OFFCURVE",
"104 189 OFFCURVE",
"49 178 CURVE",
"60 108 LINE",
"122 121 OFFCURVE",
"233 148 OFFCURVE",
"265 156 CURVE SMOOTH",
"282 160 OFFCURVE",
"366 183 OFFCURVE",
"426 200 CURVE",
"426 164 OFFCURVE",
"427 59 OFFCURVE",
"430 0 CURVE"
);
}
);
width = 561;
}
);
unicode = 10F05;
script = "";
category = Letter;
subCategory = Other;
},
{
glyphname = u10F06;
lastChange = "2019-09-16 14:13:48 +0000";
layers = (
{
layerId = UUID0;
paths = (
{
closed = 1;
nodes = (
"433 279 LINE",
"255 279 LINE SMOOTH",
"160 279 OFFCURVE",
"103 242 OFFCURVE",
"70 188 CURVE SMOOTH",
"43 144 OFFCURVE",
"30 94 OFFCURVE",
"30 50 CURVE SMOOTH",
"30 20 OFFCURVE",
"45 0 OFFCURVE",
"77 0 CURVE",
"643 0 LINE SMOOTH",
"721 0 OFFCURVE",
"752 44 OFFCURVE",
"752 106 CURVE SMOOTH",
"752 131 OFFCURVE",
"747 159 OFFCURVE",
"734 199 CURVE SMOOTH",
"715 258 OFFCURVE",
"682 342 OFFCURVE",
"647 428 CURVE",
"564 415 LINE",
"606 314 OFFCURVE",
"646 213 OFFCURVE",
"668 147 CURVE SMOOTH",
"672 134 OFFCURVE",
"676 116 OFFCURVE",
"676 104 CURVE SMOOTH",
"676 92 OFFCURVE",
"673 76 OFFCURVE",
"648 76 CURVE SMOOTH",
"105 76 LINE",
"114 171 OFFCURVE",
"157 209 OFFCURVE",
"258 209 CURVE SMOOTH",
"449 209 LINE"
);
}
);
width = 797;
}
);
leftKerningGroup = u10F0C;
unicode = 10F06;
script = "";
category = Letter;
subCategory = Other;
},
{
glyphname = u10F07;
lastChange = "2019-09-16 14:13:48 +0000";
layers = (
{
layerId = UUID0;
paths = (
{
closed = 1;
nodes = (
"85 0 LINE",
"103 -4 OFFCURVE",
"119 -5 OFFCURVE",
"138 -5 CURVE SMOOTH",
"307 -5 OFFCURVE",
"402 93 OFFCURVE",
"402 235 CURVE SMOOTH",
"402 348 OFFCURVE",
"327 435 OFFCURVE",
"199 435 CURVE SMOOTH",
"116 435 OFFCURVE",
"59 393 OFFCURVE",
"30 346 CURVE",
"83 312 LINE",
"108 349 OFFCURVE",
"156 366 OFFCURVE",
"193 366 CURVE SMOOTH",
"245 366 OFFCURVE",
"323 344 OFFCURVE",
"323 232 CURVE SMOOTH",
"323 112 OFFCURVE",
"235 64 OFFCURVE",
"137 64 CURVE SMOOTH",
"127 64 OFFCURVE",
"104 65 OFFCURVE",
"91 68 CURVE"
);
}
);
width = 432;
}
);
leftKerningGroup = u10F07;
unicode = 10F07;
script = "";
category = Letter;
subCategory = Other;
},
{
glyphname = u10F08;
lastChange = "2019-09-16 14:13:48 +0000";
layers = (
{
layerId = UUID0;
paths = (
{
closed = 1;
nodes = (
"25 0 LINE",
"32 -1 OFFCURVE",
"33 -1 OFFCURVE",
"40 -1 CURVE SMOOTH",
"82 -1 OFFCURVE",
"111 16 OFFCURVE",
"129 50 CURVE SMOOTH",
"149 88 OFFCURVE",
"151 148 OFFCURVE",
"151 250 CURVE SMOOTH",
"151 307 OFFCURVE",
"150 365 OFFCURVE",
"147 426 CURVE",
"71 422 LINE",
"74 346 OFFCURVE",
"75 286 OFFCURVE",
"75 253 CURVE SMOOTH",
"75 189 OFFCURVE",
"74 142 OFFCURVE",
"70 116 CURVE SMOOTH",
"64 78 OFFCURVE",
"47 76 OFFCURVE",
"25 76 CURVE"
);
}
);
width = 206;
}
);
unicode = 10F08;
script = "";
category = Letter;
subCategory = Other;
},
{
glyphname = u10F09;
lastChange = "2019-09-16 14:13:48 +0000";
layers = (
{
layerId = UUID0;
paths = (
{
closed = 1;
nodes = (
"510 85 LINE",
"486 105 OFFCURVE",
"316 247 OFFCURVE",
"236 336 CURVE SMOOTH",
"208 367 OFFCURVE",
"189 395 OFFCURVE",
"168 429 CURVE",
"100 426 LINE",
"104 387 OFFCURVE",
"129 329 OFFCURVE",
"133 312 CURVE SMOOTH",
"138 292 OFFCURVE",
"141 279 OFFCURVE",
"141 256 CURVE SMOOTH",
"141 160 OFFCURVE",
"107 76 OFFCURVE",
"20 58 CURVE",
"20 -18 LINE",
"155 5 OFFCURVE",
"208 115 OFFCURVE",
"213 247 CURVE",
"275 177 OFFCURVE",
"365 101 OFFCURVE",
"443 40 CURVE SMOOTH",
"477 13 OFFCURVE",
"501 -3 OFFCURVE",
"531 -3 CURVE SMOOTH",
"562 -3 OFFCURVE",
"584 10 OFFCURVE",
"584 43 CURVE SMOOTH",
"584 213 LINE SMOOTH",
"584 246 OFFCURVE",
"585 350 OFFCURVE",
"588 426 CURVE",
"512 422 LINE",
"509 361 OFFCURVE",
"508 264 OFFCURVE",
"508 232 CURVE SMOOTH",
"508 187 OFFCURVE",
"509 118 OFFCURVE",
"512 88 CURVE"
);
}
);
width = 643;
}
);
rightKerningGroup = u10F1A;
unicode = 10F09;
script = "";
category = Letter;
subCategory = Other;
},
{
glyphname = u10F0A;
lastChange = "2019-09-16 14:13:48 +0000";
layers = (
{
layerId = UUID0;
paths = (
{
closed = 1;
nodes = (
"26 171 LINE",
"84 170 OFFCURVE",
"149 168 OFFCURVE",
"184 166 CURVE SMOOTH",
"276 160 OFFCURVE",
"294 140 OFFCURVE",
"294 105 CURVE SMOOTH",
"294 86 OFFCURVE",
"285 72 OFFCURVE",
"274 59 CURVE SMOOTH",
"252 33 OFFCURVE",
"216 7 OFFCURVE",
"171 -19 CURVE",
"214 -73 LINE",
"293 -31 OFFCURVE",
"374 30 OFFCURVE",
"374 121 CURVE SMOOTH",
"374 163 OFFCURVE",
"359 224 OFFCURVE",
"209 236 CURVE SMOOTH",
"189 238 OFFCURVE",
"157 239 OFFCURVE",
"125 240 CURVE",
"171 290 OFFCURVE",
"218 350 OFFCURVE",
"253 399 CURVE",
"186 431 LINE",
"137 366 OFFCURVE",
"80 288 OFFCURVE",
"28 232 CURVE"
);
}
);
width = 404;
}
);
rightKerningGroup = u10F0A;
unicode = 10F0A;
script = "";
category = Letter;
subCategory = Other;
},
{
glyphname = u10F0B;
lastChange = "2019-09-16 14:13:48 +0000";
layers = (
{
layerId = UUID0;
paths = (
{
closed = 1;
nodes = (
"-112 -158 LINE",
"-92 -163 OFFCURVE",
"-60 -165 OFFCURVE",
"-43 -165 CURVE SMOOTH",
"134 -165 OFFCURVE",
"242 -65 OFFCURVE",
"323 100 CURVE SMOOTH",
"372 200 OFFCURVE",
"408 316 OFFCURVE",
"427 417 CURVE",
"355 426 LINE",
"343 366 OFFCURVE",
"324 298 OFFCURVE",
"300 233 CURVE",
"163 234 OFFCURVE",
"112 342 OFFCURVE",
"96 434 CURVE",
"20 416 LINE",
"40 293 OFFCURVE",
"100 176 OFFCURVE",
"271 162 CURVE",
"204 16 OFFCURVE",
"121 -94 OFFCURVE",
"-44 -94 CURVE SMOOTH",
"-56 -94 OFFCURVE",
"-95 -91 OFFCURVE",
"-112 -88 CURVE"
);
}
);
width = 454;
}
);
leftKerningGroup = u10F0B;
unicode = 10F0B;
script = "";
category = Letter;
subCategory = Other;
},
{
glyphname = u10F0C;
lastChange = "2019-09-16 14:13:48 +0000";
layers = (
{
layerId = UUID0;
paths = (
{
closed = 1;
nodes = (
"332 0 LINE",
"410 0 OFFCURVE",
"441 44 OFFCURVE",
"441 106 CURVE SMOOTH",
"441 131 OFFCURVE",
"436 159 OFFCURVE",
"423 199 CURVE SMOOTH",
"376 342 OFFCURVE",
"250 634 OFFCURVE",
"201 747 CURVE",
"123 730 LINE",
"171 621 OFFCURVE",
"307 295 OFFCURVE",
"357 147 CURVE SMOOTH",
"361 134 OFFCURVE",
"365 116 OFFCURVE",
"365 104 CURVE SMOOTH",
"365 92 OFFCURVE",
"362 76 OFFCURVE",
"337 76 CURVE SMOOTH",
"20 76 LINE",
"20 0 LINE"
);
}
);
width = 486;
}
);
leftKerningGroup = u10F0C;
rightKerningGroup = u10F0C;
unicode = 10F0C;
script = "";
category = Letter;
subCategory = Other;
},
{
glyphname = u10F0D;
lastChange = "2019-09-16 14:13:48 +0000";
layers = (
{
layerId = UUID0;
paths = (
{
closed = 1;
nodes = (
"366 431 LINE",
"342 359 OFFCURVE",
"316 295 OFFCURVE",
"279 240 CURVE",
"207 262 OFFCURVE",
"146 326 OFFCURVE",
"111 431 CURVE",
"39 407 LINE",
"70 306 OFFCURVE",
"126 217 OFFCURVE",
"231 181 CURVE",
"181 131 OFFCURVE",
"116 94 OFFCURVE",
"25 74 CURVE",
"25 -1 LINE",
"126 13 OFFCURVE",
"226 73 OFFCURVE",
"305 164 CURVE",
"334 160 OFFCURVE",
"364 159 OFFCURVE",
"390 159 CURVE SMOOTH",
"412 159 OFFCURVE",
"452 161 OFFCURVE",
"467 163 CURVE",
"469 160 OFFCURVE",
"469 154 OFFCURVE",
"469 152 CURVE SMOOTH",
"469 127 OFFCURVE",
"423 64 OFFCURVE",
"381 20 CURVE",
"441 -11 LINE",
"492 37 OFFCURVE",
"544 115 OFFCURVE",
"544 167 CURVE SMOOTH",
"544 209 OFFCURVE",
"526 233 OFFCURVE",
"487 233 CURVE SMOOTH",
"473 233 OFFCURVE",
"431 228 OFFCURVE",
"380 228 CURVE SMOOTH",
"372 228 OFFCURVE",
"363 228 OFFCURVE",
"353 229 CURVE",
"389 284 OFFCURVE",
"417 346 OFFCURVE",
"434 415 CURVE"
);
}
);
width = 564;
}
);
unicode = 10F0D;
script = "";
category = Letter;
subCategory = Other;
},
{
glyphname = u10F0E;
lastChange = "2019-09-16 14:13:48 +0000";
layers = (
{
layerId = UUID0;
paths = (
{
closed = 1;
nodes = (
"146 250 LINE SMOOTH",
"146 307 OFFCURVE",
"145 365 OFFCURVE",
"142 426 CURVE",
"66 422 LINE",
"69 346 OFFCURVE",
"70 286 OFFCURVE",
"70 253 CURVE SMOOTH",
"70 211 LINE SMOOTH",
"70 110 OFFCURVE",
"44 4 OFFCURVE",
"-59 -70 CURVE",
"-14 -120 LINE",
"72 -74 OFFCURVE",
"146 40 OFFCURVE",
"146 198 CURVE SMOOTH"
);
}
);
width = 196;
}
);
unicode = 10F0E;
script = "";
category = Letter;
subCategory = Other;
},
{
glyphname = u10F0F;
lastChange = "2019-09-16 14:13:48 +0000";
layers = (
{
layerId = UUID0;
paths = (
{
closed = 1;
nodes = (
"515 171 OFFCURVE",
"504 126 OFFCURVE",
"470 102 CURVE SMOOTH",
"447 86 OFFCURVE",
"404 76 OFFCURVE",
"357 76 CURVE SMOOTH",
"20 76 LINE",
"20 0 LINE",
"345 0 LINE SMOOTH",
"423 0 OFFCURVE",
"480 15 OFFCURVE",
"513 38 CURVE SMOOTH",
"571 78 OFFCURVE",
"591 161 OFFCURVE",
"591 250 CURVE SMOOTH",
"591 307 OFFCURVE",
"589 365 OFFCURVE",
"583 426 CURVE",
"507 422 LINE",
"512 342 OFFCURVE",
"515 286 OFFCURVE",
"515 253 CURVE SMOOTH"
);
}
);
width = 631;
}
);
leftKerningGroup = u10F02;
unicode = 10F0F;
script = "";
category = Letter;
subCategory = Other;
},
{
glyphname = u10F10;
lastChange = "2019-09-16 14:13:48 +0000";
layers = (
{
layerId = UUID0;
paths = (
{
closed = 1;
nodes = (
"136 -175 LINE",
"141 -38 OFFCURVE",
"141 23 OFFCURVE",
"141 160 CURVE SMOOTH",
"141 173 OFFCURVE",
"141 372 OFFCURVE",
"131 439 CURVE",
"55 436 LINE",
"61 361 OFFCURVE",
"62 181 OFFCURVE",
"62 140 CURVE SMOOTH",
"62 -175 LINE"
);
}
);
width = 196;
}
);
unicode = 10F10;
script = "";
category = Letter;
subCategory = Other;
},
{
glyphname = u10F11;
lastChange = "2019-09-16 14:13:48 +0000";
layers = (
{
layerId = UUID0;
paths = (
{
closed = 1;
nodes = (
"96 0 LINE",
"190 103 OFFCURVE",
"232 158 OFFCURVE",
"307 235 CURVE SMOOTH",
"385 315 OFFCURVE",
"428 345 OFFCURVE",
"475 345 CURVE SMOOTH",
"542 345 OFFCURVE",
"551 275 OFFCURVE",
"551 212 CURVE SMOOTH",
"551 97 OFFCURVE",
"509 63 OFFCURVE",
"401 63 CURVE",
"396 63 LINE",
"396 -1 LINE",
"408 -2 OFFCURVE",
"413 -2 OFFCURVE",
"425 -2 CURVE SMOOTH",
"557 -2 OFFCURVE",
"630 55 OFFCURVE",
"630 224 CURVE SMOOTH",
"630 327 OFFCURVE",
"599 416 OFFCURVE",
"484 416 CURVE SMOOTH",
"427 416 OFFCURVE",
"370 396 OFFCURVE",
"304 334 CURVE SMOOTH",
"260 292 OFFCURVE",
"185 205 OFFCURVE",
"148 159 CURVE",
"144 161 LINE",
"151 200 OFFCURVE",
"157 253 OFFCURVE",
"157 287 CURVE SMOOTH",
"157 344 OFFCURVE",
"149 392 OFFCURVE",
"137 429 CURVE",
"60 421 LINE",
"74 359 OFFCURVE",
"79 304 OFFCURVE",
"79 247 CURVE SMOOTH",
"79 163 OFFCURVE",
"66 76 OFFCURVE",
"20 0 CURVE"
);
}
);
width = 670;
}
);
leftKerningGroup = u10F1A;
unicode = 10F11;
script = "";
category = Letter;
subCategory = Other;
},
{
glyphname = u10F12;
lastChange = "2019-09-16 14:13:48 +0000";
layers = (
{
layerId = UUID0;
paths = (
{
closed = 1;
nodes = (
"253 368 LINE",
"292 273 OFFCURVE",
"315 213 OFFCURVE",
"337 147 CURVE SMOOTH",
"341 134 OFFCURVE",
"345 116 OFFCURVE",
"345 104 CURVE SMOOTH",
"345 92 OFFCURVE",
"342 76 OFFCURVE",
"317 76 CURVE SMOOTH",
"20 76 LINE",
"20 0 LINE",
"312 0 LINE SMOOTH",
"390 0 OFFCURVE",
"421 44 OFFCURVE",
"421 106 CURVE SMOOTH",
"421 131 OFFCURVE",
"417 159 OFFCURVE",
"403 199 CURVE SMOOTH",
"389 240 OFFCURVE",
"370 293 OFFCURVE",
"348 352 CURVE",
"429 350 OFFCURVE",
"504 351 OFFCURVE",
"553 351 CURVE SMOOTH",
"643 351 OFFCURVE",
"751 353 OFFCURVE",
"823 358 CURVE",
"823 429 LINE",
"743 425 OFFCURVE",
"653 423 OFFCURVE",
"557 423 CURVE SMOOTH",
"493 423 OFFCURVE",
"317 423 OFFCURVE",
"269 426 CURVE"
);
}
);
width = 843;
}
);
leftKerningGroup = u10F15;
unicode = 10F12;
script = "";
category = Letter;
subCategory = Other;
},
{
glyphname = u10F13;
lastChange = "2019-09-16 14:13:48 +0000";
layers = (
{
layerId = UUID0;
paths = (
{
closed = 1;
nodes = (
"26 189 LINE",
"84 183 OFFCURVE",
"113 178 OFFCURVE",
"147 171 CURVE SMOOTH",
"237 153 OFFCURVE",
"252 134 OFFCURVE",
"252 102 CURVE SMOOTH",
"252 56 OFFCURVE",
"191 16 OFFCURVE",
"131 -19 CURVE",
"174 -73 LINE",
"253 -31 OFFCURVE",
"333 28 OFFCURVE",
"333 116 CURVE SMOOTH",
"333 158 OFFCURVE",
"315 212 OFFCURVE",
"175 234 CURVE SMOOTH",
"125 242 LINE",
"189 282 OFFCURVE",
"278 329 OFFCURVE",
"338 353 CURVE",
"429 101 OFFCURVE",
"504 -17 OFFCURVE",
"673 -17 CURVE SMOOTH",
"832 -17 OFFCURVE",
"881 103 OFFCURVE",
"881 178 CURVE SMOOTH",
"881 283 OFFCURVE",
"819 349 OFFCURVE",
"705 349 CURVE SMOOTH",
"621 349 OFFCURVE",
"557 297 OFFCURVE",
"538 229 CURVE",
"592 207 LINE",
"610 247 OFFCURVE",
"650 279 OFFCURVE",
"704 279 CURVE SMOOTH",
"775 279 OFFCURVE",
"807 239 OFFCURVE",
"807 178 CURVE SMOOTH",
"807 135 OFFCURVE",
"782 55 OFFCURVE",
"680 55 CURVE SMOOTH",
"558 55 OFFCURVE",
"488 136 OFFCURVE",
"395 426 CURVE",
"346 426 LINE",
"266 402 OFFCURVE",
"88 299 OFFCURVE",
"26 247 CURVE"
);
}
);
width = 911;
}
);
leftKerningGroup = u10F13;
rightKerningGroup = u10F0A;
unicode = 10F13;
script = "";
category = Letter;
subCategory = Other;
},
{
glyphname = u10F14;
lastChange = "2019-09-16 14:13:48 +0000";
layers = (
{
anchors = (
{
name = bottom;
position = "{85, -381}";
}
);
layerId = UUID0;
paths = (
{
closed = 1;
nodes = (
"43 167 OFFCURVE",
"131 115 OFFCURVE",
"265 115 CURVE SMOOTH",
"291 115 LINE",
"227 5 OFFCURVE",
"99 -42 OFFCURVE",
"-37 -42 CURVE SMOOTH",
"-40 -42 OFFCURVE",
"-51 -42 OFFCURVE",
"-57 -41 CURVE",
"-57 -109 LINE",
"-39 -111 OFFCURVE",
"-30 -112 OFFCURVE",
"-12 -112 CURVE SMOOTH",
"191 -112 OFFCURVE",
"396 28 OFFCURVE",
"396 244 CURVE SMOOTH",
"396 346 OFFCURVE",
"346 440 OFFCURVE",
"218 440 CURVE SMOOTH",
"119 440 OFFCURVE",
"43 362 OFFCURVE",
"43 281 CURVE SMOOTH"
);
},
{
closed = 1;
nodes = (
"320 219 OFFCURVE",
"319 204 OFFCURVE",
"314 186 CURVE",
"266 186 LINE SMOOTH",
"189 186 OFFCURVE",
"119 205 OFFCURVE",
"119 281 CURVE SMOOTH",
"119 332 OFFCURVE",
"157 371 OFFCURVE",
"214 371 CURVE SMOOTH",
"267 371 OFFCURVE",
"320 343 OFFCURVE",
"320 240 CURVE SMOOTH"
);
}
);
width = 426;
}
);
leftKerningGroup = u10F14;
rightKerningGroup = u10F14;
unicode = 10F14;
script = "";
category = Letter;
subCategory = Other;
},
{
glyphname = u10F15;
lastChange = "2019-09-16 14:13:48 +0000";
layers = (
{
layerId = UUID0;
paths = (
{
closed = 1;
nodes = (
"157 264 OFFCURVE",
"177 213 OFFCURVE",
"199 147 CURVE SMOOTH",
"203 134 OFFCURVE",
"207 116 OFFCURVE",
"207 104 CURVE SMOOTH",
"207 92 OFFCURVE",
"204 76 OFFCURVE",
"179 76 CURVE SMOOTH",
"20 76 LINE",
"20 0 LINE",
"174 0 LINE SMOOTH",
"252 0 OFFCURVE",
"283 44 OFFCURVE",
"283 106 CURVE SMOOTH",
"283 131 OFFCURVE",
"278 159 OFFCURVE",
"265 199 CURVE SMOOTH",
"252 238 OFFCURVE",
"232 289 OFFCURVE",
"207 343 CURVE",
"237 336 OFFCURVE",
"274 332 OFFCURVE",
"309 332 CURVE SMOOTH",
"372 332 OFFCURVE",
"443 343 OFFCURVE",
"485 361 CURVE",
"485 432 LINE",
"480 432 LINE",
"441 418 OFFCURVE",
"381 404 OFFCURVE",
"324 404 CURVE SMOOTH",
"293 404 OFFCURVE",
"254 407 OFFCURVE",
"228 412 CURVE SMOOTH",
"191 419 OFFCURVE",
"175 426 OFFCURVE",
"146 426 CURVE SMOOTH",
"123 426 OFFCURVE",
"105 410 OFFCURVE",
"105 387 CURVE SMOOTH",
"105 377 OFFCURVE",
"107 367 OFFCURVE",
"114 353 CURVE SMOOTH"
);
}
);
width = 505;
}
);
leftKerningGroup = u10F15;
unicode = 10F15;
script = "";
category = Letter;
subCategory = Other;
},
{
glyphname = u10F16;
lastChange = "2019-09-16 14:13:48 +0000";
layers = (
{
layerId = UUID0;
paths = (
{
closed = 1;
nodes = (
"517 264 OFFCURVE",
"537 213 OFFCURVE",
"559 147 CURVE SMOOTH",
"563 134 OFFCURVE",
"567 116 OFFCURVE",
"567 104 CURVE SMOOTH",
"567 92 OFFCURVE",
"564 76 OFFCURVE",
"539 76 CURVE SMOOTH",
"20 76 LINE",
"20 0 LINE",
"534 0 LINE SMOOTH",
"612 0 OFFCURVE",
"643 44 OFFCURVE",
"643 106 CURVE SMOOTH",
"643 131 OFFCURVE",
"638 159 OFFCURVE",
"625 199 CURVE SMOOTH",
"612 238 OFFCURVE",
"592 289 OFFCURVE",
"567 343 CURVE",
"597 336 OFFCURVE",
"634 332 OFFCURVE",
"669 332 CURVE SMOOTH",
"732 332 OFFCURVE",
"803 343 OFFCURVE",
"845 361 CURVE",
"845 432 LINE",
"840 432 LINE",
"801 418 OFFCURVE",
"741 404 OFFCURVE",
"684 404 CURVE SMOOTH",
"653 404 OFFCURVE",
"614 407 OFFCURVE",
"588 412 CURVE SMOOTH",
"551 419 OFFCURVE",
"535 426 OFFCURVE",
"506 426 CURVE SMOOTH",
"483 426 OFFCURVE",
"465 410 OFFCURVE",
"465 387 CURVE SMOOTH",
"465 377 OFFCURVE",
"467 367 OFFCURVE",
"474 353 CURVE SMOOTH"
);
}
);
width = 865;
}
);
leftKerningGroup = u10F15;
unicode = 10F16;
script = "";
category = Letter;
subCategory = Other;
},
{
glyphname = u10F17;
lastChange = "2019-09-16 14:13:48 +0000";
layers = (
{
layerId = UUID0;
paths = (
{
closed = 1;
nodes = (
"323 332 OFFCURVE",
"383 343 OFFCURVE",
"427 361 CURVE",
"427 433 LINE",
"421 433 LINE",
"382 419 OFFCURVE",
"334 405 OFFCURVE",
"266 405 CURVE SMOOTH",
"234 405 OFFCURVE",
"210 408 OFFCURVE",
"181 413 CURVE SMOOTH",
"141 420 OFFCURVE",
"123 426 OFFCURVE",
"100 426 CURVE SMOOTH",
"78 426 OFFCURVE",
"55 413 OFFCURVE",
"55 380 CURVE SMOOTH",
"55 354 OFFCURVE",
"59 278 OFFCURVE",
"59 162 CURVE SMOOTH",
"59 -175 LINE",
"133 -175 LINE",
"138 -38 OFFCURVE",
"138 45 OFFCURVE",
"138 182 CURVE SMOOTH",
"138 190 OFFCURVE",
"138 272 OFFCURVE",
"135 349 CURVE",
"171 339 OFFCURVE",
"213 332 OFFCURVE",
"258 332 CURVE SMOOTH"
);
}
);
width = 447;
}
);
leftKerningGroup = u10F15;
unicode = 10F17;
script = "";
category = Letter;
subCategory = Other;
},
{
glyphname = u10F18;
lastChange = "2019-09-16 14:13:48 +0000";
layers = (
{
layerId = UUID0;
paths = (
{
closed = 1;
nodes = (
"21 0 LINE",
"41 -3 OFFCURVE",
"56 -4 OFFCURVE",
"75 -4 CURVE SMOOTH",
"236 -4 OFFCURVE",
"319 86 OFFCURVE",
"367 211 CURVE SMOOTH",
"391 273 OFFCURVE",
"410 337 OFFCURVE",
"425 417 CURVE",
"353 426 LINE",
"340 359 OFFCURVE",
"327 309 OFFCURVE",
"311 264 CURVE",
"184 265 OFFCURVE",
"134 342 OFFCURVE",
"118 434 CURVE",
"42 416 LINE",
"64 292 OFFCURVE",
"122 206 OFFCURVE",
"282 193 CURVE",
"240 109 OFFCURVE",
"176 67 OFFCURVE",
"76 67 CURVE SMOOTH",
"64 67 OFFCURVE",
"34 68 OFFCURVE",
"21 69 CURVE"
);
}
);
width = 445;
}
);
leftKerningGroup = u10F0B;
unicode = 10F18;
script = "";
category = Letter;
subCategory = Other;
},
{
glyphname = u10F19;
lastChange = "2019-09-16 14:13:48 +0000";
layers = (
{
layerId = UUID0;
paths = (
{
closed = 1;
nodes = (
"20 -18 LINE",
"176 13 OFFCURVE",
"216 104 OFFCURVE",
"216 219 CURVE",
"241 209 OFFCURVE",
"271 207 OFFCURVE",
"296 207 CURVE SMOOTH",
"362 207 OFFCURVE",
"454 225 OFFCURVE",
"548 249 CURVE",
"527 200 OFFCURVE",
"508 160 OFFCURVE",
"468 73 CURVE SMOOTH",
"462 59 OFFCURVE",
"460 49 OFFCURVE",
"460 39 CURVE SMOOTH",
"461 16 OFFCURVE",
"479 0 OFFCURVE",
"502 0 CURVE SMOOTH",
"528 0 OFFCURVE",
"539 2 OFFCURVE",
"576 10 CURVE SMOOTH",
"726 42 OFFCURVE",
"812 73 OFFCURVE",
"954 135 CURVE",
"954 213 LINE",
"807 150 OFFCURVE",
"707 117 OFFCURVE",
"552 83 CURVE",
"584 151 OFFCURVE",
"607 200 OFFCURVE",
"627 258 CURVE SMOOTH",
"632 274 OFFCURVE",
"633 282 OFFCURVE",
"633 292 CURVE SMOOTH",
"632 315 OFFCURVE",
"611 327 OFFCURVE",
"588 327 CURVE SMOOTH",
"577 327 OFFCURVE",
"552 321 OFFCURVE",
"515 313 CURVE SMOOTH",
"390 287 OFFCURVE",
"344 280 OFFCURVE",
"281 280 CURVE SMOOTH",
"211 280 OFFCURVE",
"191 324 OFFCURVE",
"177 362 CURVE",
"106 343 LINE",
"117 304 OFFCURVE",
"128 274 OFFCURVE",
"134 260 CURVE SMOOTH",
"139 246 OFFCURVE",
"142 235 OFFCURVE",
"142 222 CURVE SMOOTH",
"142 143 OFFCURVE",
"129 85 OFFCURVE",
"20 58 CURVE"
);
}
);
width = 974;
}
);
unicode = 10F19;
script = "";
category = Letter;
subCategory = Other;
},
{
glyphname = u10F1A;
lastChange = "2019-09-16 14:13:48 +0000";
layers = (
{
layerId = UUID0;
paths = (
{
closed = 1;
nodes = (
"20 -18 LINE",
"182 8 OFFCURVE",
"236 129 OFFCURVE",
"236 293 CURVE SMOOTH",
"236 307 OFFCURVE",
"236 321 OFFCURVE",
"235 336 CURVE",
"363 336 LINE SMOOTH",
"470 336 OFFCURVE",
"482 286 OFFCURVE",
"482 223 CURVE SMOOTH",
"482 108 OFFCURVE",
"390 63 OFFCURVE",
"282 63 CURVE SMOOTH",
"269 63 LINE",
"269 -1 LINE",
"281 -2 OFFCURVE",
"294 -2 OFFCURVE",
"306 -2 CURVE SMOOTH",
"438 -2 OFFCURVE",
"561 66 OFFCURVE",
"561 235 CURVE SMOOTH",
"561 338 OFFCURVE",
"520 407 OFFCURVE",
"372 407 CURVE SMOOTH",
"222 407 LINE",
"217 453 LINE",
"144 450 LINE",
"145 408 OFFCURVE",
"152 353 OFFCURVE",
"155 337 CURVE",
"156 317 OFFCURVE",
"157 296 OFFCURVE",
"157 277 CURVE SMOOTH",
"157 153 OFFCURVE",
"125 77 OFFCURVE",
"20 58 CURVE"
);
}
);
width = 601;
}
);
leftKerningGroup = u10F1A;
rightKerningGroup = u10F1A;
unicode = 10F1A;
script = "";
category = Letter;
subCategory = Other;
},
{
glyphname = u10F1B;
lastChange = "2019-09-16 14:13:48 +0000";
layers = (
{
layerId = UUID0;
paths = (
{
closed = 1;
nodes = (
"576 176 OFFCURVE",
"541 76 OFFCURVE",
"364 76 CURVE SMOOTH",
"20 76 LINE",
"20 0 LINE",
"352 0 LINE SMOOTH",
"592 0 OFFCURVE",
"655 136 OFFCURVE",
"655 336 CURVE",
"773 336 LINE SMOOTH",
"880 336 OFFCURVE",
"892 286 OFFCURVE",
"892 223 CURVE SMOOTH",
"892 108 OFFCURVE",
"800 63 OFFCURVE",
"692 63 CURVE SMOOTH",
"679 63 LINE",
"679 -1 LINE",
"691 -2 OFFCURVE",
"704 -2 OFFCURVE",
"716 -2 CURVE SMOOTH",
"848 -2 OFFCURVE",
"971 66 OFFCURVE",
"971 235 CURVE SMOOTH",
"971 338 OFFCURVE",
"930 407 OFFCURVE",
"782 407 CURVE SMOOTH",
"642 407 LINE",
"637 452 LINE",
"564 449 LINE",
"565 407 OFFCURVE",
"572 359 OFFCURVE",
"576 336 CURVE"
);
}
);
width = 1011;
}
);
leftKerningGroup = u10F1A;
unicode = 10F1B;
script = "";
category = Letter;
subCategory = Other;
},
{
glyphname = u10F1C;
lastChange = "2019-09-16 14:13:48 +0000";
layers = (
{
layerId = UUID0;
paths = (
{
closed = 1;
nodes = (
"136 -175 LINE",
"141 -38 OFFCURVE",
"141 45 OFFCURVE",
"141 182 CURVE SMOOTH",
"141 189 OFFCURVE",
"141 263 OFFCURVE",
"139 336 CURVE",
"282 336 LINE SMOOTH",
"389 336 OFFCURVE",
"403 286 OFFCURVE",
"403 223 CURVE SMOOTH",
"403 108 OFFCURVE",
"314 73 OFFCURVE",
"207 73 CURVE",
"207 9 LINE",
"212 8 OFFCURVE",
"215 8 OFFCURVE",
"222 8 CURVE SMOOTH",
"354 8 OFFCURVE",
"482 66 OFFCURVE",
"482 235 CURVE SMOOTH",
"482 338 OFFCURVE",
"439 407 OFFCURVE",
"291 407 CURVE SMOOTH",
"136 407 LINE",
"135 421 OFFCURVE",
"133 447 OFFCURVE",
"131 461 CURVE",
"55 458 LINE",
"61 383 OFFCURVE",
"62 203 OFFCURVE",
"62 162 CURVE SMOOTH",
"62 -175 LINE"
);
}
);
width = 522;
}
);
leftKerningGroup = u10F1A;
unicode = 10F1C;
script = "";
category = Letter;
subCategory = Other;
},
{
glyphname = u10F1D;
lastChange = "2019-09-16 14:13:48 +0000";
layers = (
{
layerId = UUID0;
paths = (
{
closed = 1;
nodes = (
"20 39 LINE",
"57 10 OFFCURVE",
"97 -1 OFFCURVE",
"138 -1 CURVE SMOOTH",
"206 -1 OFFCURVE",
"251 26 OFFCURVE",
"270 60 CURVE SMOOTH",
"290 95 OFFCURVE",
"293 136 OFFCURVE",
"293 235 CURVE SMOOTH",
"293 292 OFFCURVE",
"292 365 OFFCURVE",
"289 426 CURVE",
"213 422 LINE",
"216 346 OFFCURVE",
"217 266 OFFCURVE",
"217 233 CURVE SMOOTH",
"217 190 OFFCURVE",
"217 148 OFFCURVE",
"212 125 CURVE SMOOTH",
"204 88 OFFCURVE",
"185 75 OFFCURVE",
"139 75 CURVE SMOOTH",
"96 75 OFFCURVE",
"64 84 OFFCURVE",
"24 112 CURVE",
"20 112 LINE"
);
}
);
width = 343;
}
);
unicode = 10F1D;
script = "";
category = Letter;
subCategory = Other;
},
{
glyphname = u10F1E;
lastChange = "2019-09-16 14:13:48 +0000";
layers = (
{
layerId = UUID0;
paths = (
{
closed = 1;
nodes = (
"20 39 LINE",
"57 10 OFFCURVE",
"97 -1 OFFCURVE",
"138 -1 CURVE SMOOTH",
"190 -1 OFFCURVE",
"229 15 OFFCURVE",
"252 37 CURVE",
"289 10 OFFCURVE",
"328 -1 OFFCURVE",
"368 -1 CURVE SMOOTH",
"436 -1 OFFCURVE",
"481 26 OFFCURVE",
"500 60 CURVE SMOOTH",
"520 95 OFFCURVE",
"523 136 OFFCURVE",
"523 235 CURVE SMOOTH",
"523 292 OFFCURVE",
"522 365 OFFCURVE",
"519 426 CURVE",
"443 422 LINE",
"446 346 OFFCURVE",
"447 266 OFFCURVE",
"447 233 CURVE SMOOTH",
"447 190 OFFCURVE",
"447 148 OFFCURVE",
"442 125 CURVE SMOOTH",
"434 88 OFFCURVE",
"415 75 OFFCURVE",
"369 75 CURVE SMOOTH",
"337 75 OFFCURVE",
"311 80 OFFCURVE",
"284 94 CURVE",
"292 124 OFFCURVE",
"293 165 OFFCURVE",
"293 235 CURVE SMOOTH",
"293 292 OFFCURVE",
"292 355 OFFCURVE",
"289 416 CURVE",
"213 412 LINE",
"216 336 OFFCURVE",
"217 266 OFFCURVE",
"217 233 CURVE SMOOTH",
"217 190 OFFCURVE",
"217 148 OFFCURVE",
"212 125 CURVE SMOOTH",
"204 88 OFFCURVE",
"185 75 OFFCURVE",
"139 75 CURVE SMOOTH",
"96 75 OFFCURVE",
"64 84 OFFCURVE",
"24 112 CURVE",
"20 112 LINE"
);
}
);
width = 573;
}
);
unicode = 10F1E;
script = "";
category = Letter;
subCategory = Other;
},
{
glyphname = u10F1F;
lastChange = "2019-09-16 14:13:48 +0000";
layers = (
{
layerId = UUID0;
paths = (
{
closed = 1;
nodes = (
"20 39 LINE",
"57 10 OFFCURVE",
"97 -1 OFFCURVE",
"138 -1 CURVE SMOOTH",
"190 -1 OFFCURVE",
"229 15 OFFCURVE",
"252 37 CURVE",
"289 10 OFFCURVE",
"328 -1 OFFCURVE",
"368 -1 CURVE SMOOTH",
"420 -1 OFFCURVE",
"459 15 OFFCURVE",
"482 37 CURVE",
"519 10 OFFCURVE",
"558 -1 OFFCURVE",
"598 -1 CURVE SMOOTH",
"666 -1 OFFCURVE",
"711 26 OFFCURVE",
"730 60 CURVE SMOOTH",
"750 95 OFFCURVE",
"753 136 OFFCURVE",
"753 235 CURVE SMOOTH",
"753 292 OFFCURVE",
"752 365 OFFCURVE",
"749 426 CURVE",
"673 422 LINE",
"676 346 OFFCURVE",
"677 266 OFFCURVE",
"677 233 CURVE SMOOTH",
"677 190 OFFCURVE",
"677 148 OFFCURVE",
"672 125 CURVE SMOOTH",
"664 88 OFFCURVE",
"645 75 OFFCURVE",
"599 75 CURVE SMOOTH",
"567 75 OFFCURVE",
"541 80 OFFCURVE",
"514 94 CURVE",
"522 124 OFFCURVE",
"523 165 OFFCURVE",
"523 235 CURVE SMOOTH",
"523 292 OFFCURVE",
"522 355 OFFCURVE",
"519 416 CURVE",
"443 412 LINE",
"446 336 OFFCURVE",
"447 266 OFFCURVE",
"447 233 CURVE SMOOTH",
"447 190 OFFCURVE",
"447 148 OFFCURVE",
"442 125 CURVE SMOOTH",
"434 88 OFFCURVE",
"415 75 OFFCURVE",
"369 75 CURVE SMOOTH",
"337 75 OFFCURVE",
"311 80 OFFCURVE",
"284 94 CURVE",
"292 124 OFFCURVE",
"293 165 OFFCURVE",
"293 235 CURVE SMOOTH",
"293 292 OFFCURVE",
"292 345 OFFCURVE",
"289 406 CURVE",
"213 402 LINE",
"216 326 OFFCURVE",
"217 266 OFFCURVE",
"217 233 CURVE SMOOTH",
"217 190 OFFCURVE",
"217 148 OFFCURVE",
"212 125 CURVE SMOOTH",
"204 88 OFFCURVE",
"185 75 OFFCURVE",
"139 75 CURVE SMOOTH",
"96 75 OFFCURVE",
"64 84 OFFCURVE",
"24 112 CURVE",
"20 112 LINE"
);
}
);
width = 803;
}
);
unicode = 10F1F;
script = "";
category = Letter;
subCategory = Other;
},
{
glyphname = u10F20;
lastChange = "2019-09-16 14:13:48 +0000";
layers = (
{
layerId = UUID0;
paths = (
{
closed = 1;
nodes = (
"20 39 LINE",
"57 10 OFFCURVE",
"97 -1 OFFCURVE",
"138 -1 CURVE SMOOTH",
"190 -1 OFFCURVE",
"229 15 OFFCURVE",
"252 37 CURVE",
"289 10 OFFCURVE",
"328 -1 OFFCURVE",
"368 -1 CURVE SMOOTH",
"420 -1 OFFCURVE",
"459 15 OFFCURVE",
"482 37 CURVE",
"519 10 OFFCURVE",
"558 -1 OFFCURVE",
"598 -1 CURVE SMOOTH",
"650 -1 OFFCURVE",
"689 15 OFFCURVE",
"712 37 CURVE",
"749 10 OFFCURVE",
"788 -1 OFFCURVE",
"828 -1 CURVE SMOOTH",
"896 -1 OFFCURVE",
"941 26 OFFCURVE",
"960 60 CURVE SMOOTH",
"980 95 OFFCURVE",
"983 136 OFFCURVE",
"983 235 CURVE SMOOTH",
"983 292 OFFCURVE",
"982 365 OFFCURVE",
"979 426 CURVE",
"903 422 LINE",
"906 346 OFFCURVE",
"907 266 OFFCURVE",
"907 233 CURVE SMOOTH",
"907 190 OFFCURVE",
"907 148 OFFCURVE",
"902 125 CURVE SMOOTH",
"894 88 OFFCURVE",
"875 75 OFFCURVE",
"829 75 CURVE SMOOTH",
"797 75 OFFCURVE",
"771 80 OFFCURVE",
"744 94 CURVE",
"752 124 OFFCURVE",
"753 165 OFFCURVE",
"753 235 CURVE SMOOTH",
"753 292 OFFCURVE",
"752 355 OFFCURVE",
"749 416 CURVE",
"673 412 LINE",
"676 336 OFFCURVE",
"677 266 OFFCURVE",
"677 233 CURVE SMOOTH",
"677 190 OFFCURVE",
"677 148 OFFCURVE",
"672 125 CURVE SMOOTH",
"664 88 OFFCURVE",
"645 75 OFFCURVE",
"599 75 CURVE SMOOTH",
"567 75 OFFCURVE",
"541 80 OFFCURVE",
"514 94 CURVE",
"522 124 OFFCURVE",
"523 165 OFFCURVE",
"523 235 CURVE SMOOTH",
"523 292 OFFCURVE",
"522 345 OFFCURVE",
"519 406 CURVE",
"443 402 LINE",
"446 326 OFFCURVE",
"447 266 OFFCURVE",
"447 233 CURVE SMOOTH",
"447 190 OFFCURVE",
"447 148 OFFCURVE",
"442 125 CURVE SMOOTH",
"434 88 OFFCURVE",
"415 75 OFFCURVE",
"369 75 CURVE SMOOTH",
"337 75 OFFCURVE",
"311 80 OFFCURVE",
"284 94 CURVE",
"292 124 OFFCURVE",
"293 165 OFFCURVE",
"293 235 CURVE SMOOTH",
"293 292 OFFCURVE",
"292 335 OFFCURVE",
"289 396 CURVE",
"213 392 LINE",
"216 316 OFFCURVE",
"217 266 OFFCURVE",
"217 233 CURVE SMOOTH",
"217 190 OFFCURVE",
"217 148 OFFCURVE",
"212 125 CURVE SMOOTH",
"204 88 OFFCURVE",
"185 75 OFFCURVE",
"139 75 CURVE SMOOTH",
"96 75 OFFCURVE",
"64 84 OFFCURVE",
"24 112 CURVE",
"20 112 LINE"
);
}
);
width = 1033;
}
);
unicode = 10F20;
script = "";
category = Letter;
subCategory = Other;
},
{
glyphname = u10F21;
lastChange = "2019-09-16 14:13:48 +0000";
layers = (
{
layerId = UUID0;
paths = (
{
closed = 1;
nodes = (
"20 39 LINE",
"57 10 OFFCURVE",
"97 -1 OFFCURVE",
"138 -1 CURVE SMOOTH",
"190 -1 OFFCURVE",
"229 15 OFFCURVE",
"252 37 CURVE",
"289 10 OFFCURVE",
"328 -1 OFFCURVE",
"368 -1 CURVE SMOOTH",
"420 -1 OFFCURVE",
"459 15 OFFCURVE",
"482 37 CURVE",
"519 10 OFFCURVE",
"558 -1 OFFCURVE",
"598 -1 CURVE SMOOTH",
"650 -1 OFFCURVE",
"689 15 OFFCURVE",
"712 37 CURVE",
"749 10 OFFCURVE",
"788 -1 OFFCURVE",
"828 -1 CURVE SMOOTH",
"880 -1 OFFCURVE",
"919 15 OFFCURVE",
"942 37 CURVE",
"979 10 OFFCURVE",
"1018 -1 OFFCURVE",
"1058 -1 CURVE SMOOTH",
"1126 -1 OFFCURVE",
"1171 26 OFFCURVE",
"1190 60 CURVE SMOOTH",
"1210 95 OFFCURVE",
"1213 136 OFFCURVE",
"1213 235 CURVE SMOOTH",
"1213 292 OFFCURVE",
"1212 365 OFFCURVE",
"1209 426 CURVE",
"1133 422 LINE",
"1136 346 OFFCURVE",
"1137 266 OFFCURVE",
"1137 233 CURVE SMOOTH",
"1137 190 OFFCURVE",
"1137 148 OFFCURVE",
"1132 125 CURVE SMOOTH",
"1124 88 OFFCURVE",
"1105 75 OFFCURVE",
"1059 75 CURVE SMOOTH",
"1027 75 OFFCURVE",
"1001 80 OFFCURVE",
"974 94 CURVE",
"982 124 OFFCURVE",
"983 165 OFFCURVE",
"983 235 CURVE SMOOTH",
"983 292 OFFCURVE",
"982 355 OFFCURVE",
"979 416 CURVE",
"903 412 LINE",
"906 336 OFFCURVE",
"907 266 OFFCURVE",
"907 233 CURVE SMOOTH",
"907 190 OFFCURVE",
"907 148 OFFCURVE",
"902 125 CURVE SMOOTH",
"894 88 OFFCURVE",
"875 75 OFFCURVE",
"829 75 CURVE SMOOTH",
"797 75 OFFCURVE",
"771 80 OFFCURVE",
"744 94 CURVE",
"752 124 OFFCURVE",
"753 165 OFFCURVE",
"753 235 CURVE SMOOTH",
"753 292 OFFCURVE",
"752 345 OFFCURVE",
"749 406 CURVE",
"673 402 LINE",
"676 326 OFFCURVE",
"677 266 OFFCURVE",
"677 233 CURVE SMOOTH",
"677 190 OFFCURVE",
"677 148 OFFCURVE",
"672 125 CURVE SMOOTH",
"664 88 OFFCURVE",
"645 75 OFFCURVE",
"599 75 CURVE SMOOTH",
"567 75 OFFCURVE",
"541 80 OFFCURVE",
"514 94 CURVE",
"522 124 OFFCURVE",
"523 165 OFFCURVE",
"523 235 CURVE SMOOTH",
"523 292 OFFCURVE",
"522 335 OFFCURVE",
"519 396 CURVE",
"443 392 LINE",
"446 316 OFFCURVE",
"447 266 OFFCURVE",
"447 233 CURVE SMOOTH",
"447 190 OFFCURVE",
"447 148 OFFCURVE",
"442 125 CURVE SMOOTH",
"434 88 OFFCURVE",
"415 75 OFFCURVE",
"369 75 CURVE SMOOTH",
"337 75 OFFCURVE",
"311 80 OFFCURVE",
"284 94 CURVE",
"292 124 OFFCURVE",
"293 165 OFFCURVE",
"293 235 CURVE SMOOTH",
"293 292 OFFCURVE",
"292 325 OFFCURVE",
"289 386 CURVE",
"213 382 LINE",
"216 306 OFFCURVE",
"217 266 OFFCURVE",
"217 233 CURVE SMOOTH",
"217 190 OFFCURVE",
"217 148 OFFCURVE",
"212 125 CURVE SMOOTH",
"204 88 OFFCURVE",
"185 75 OFFCURVE",
"139 75 CURVE SMOOTH",
"96 75 OFFCURVE",
"64 84 OFFCURVE",
"24 112 CURVE",
"20 112 LINE"
);
}
);
width = 1263;
}
);
unicode = 10F21;
script = "";
category = Letter;
subCategory = Other;
},
{
glyphname = u10F22;
lastChange = "2019-09-16 14:13:48 +0000";
layers = (
{
layerId = UUID0;
paths = (
{
closed = 1;
nodes = (
"216 0 LINE SMOOTH",
"345 0 OFFCURVE",
"404 63 OFFCURVE",
"404 158 CURVE SMOOTH",
"404 309 OFFCURVE",
"207 405 OFFCURVE",
"135 439 CURVE",
"91 376 LINE",
"190 328 OFFCURVE",
"329 257 OFFCURVE",
"329 154 CURVE SMOOTH",
"329 129 OFFCURVE",
"316 76 OFFCURVE",
"231 76 CURVE SMOOTH",
"20 76 LINE",
"20 0 LINE"
);
}
);
width = 444;
}
);
unicode = 10F22;
script = "";
category = Letter;
subCategory = Other;
},
{
glyphname = u10F23;
lastChange = "2019-09-16 14:13:48 +0000";
layers = (
{
layerId = UUID0;
paths = (
{
closed = 1;
nodes = (
"229 238 OFFCURVE",
"254 240 OFFCURVE",
"276 244 CURVE",
"314 226 OFFCURVE",
"339 195 OFFCURVE",
"339 159 CURVE SMOOTH",
"339 136 OFFCURVE",
"326 76 OFFCURVE",
"241 76 CURVE SMOOTH",
"30 76 LINE",
"30 0 LINE",
"226 0 LINE SMOOTH",
"355 0 OFFCURVE",
"414 75 OFFCURVE",
"414 163 CURVE SMOOTH",
"414 208 OFFCURVE",
"389 243 OFFCURVE",
"350 273 CURVE",
"387 299 OFFCURVE",
"404 337 OFFCURVE",
"404 380 CURVE SMOOTH",
"404 485 OFFCURVE",
"295 544 OFFCURVE",
"100 594 CURVE",
"74 528 LINE",
"237 483 OFFCURVE",
"329 451 OFFCURVE",
"329 376 CURVE SMOOTH",
"329 356 OFFCURVE",
"316 310 OFFCURVE",
"231 310 CURVE SMOOTH",
"195 310 OFFCURVE",
"118 312 OFFCURVE",
"44 316 CURVE",
"44 244 LINE",
"103 239 OFFCURVE",
"166 238 OFFCURVE",
"206 238 CURVE SMOOTH"
);
}
);
width = 454;
}
);
unicode = 10F23;
script = "";
category = Letter;
subCategory = Other;
},
{
glyphname = u10F24;
lastChange = "2019-09-16 14:13:48 +0000";
layers = (
{
layerId = UUID0;
paths = (
{
closed = 1;
nodes = (
"219 392 OFFCURVE",
"250 393 OFFCURVE",
"276 397 CURVE",
"310 384 OFFCURVE",
"333 362 OFFCURVE",
"333 334 CURVE SMOOTH",
"333 278 OFFCURVE",
"280 270 OFFCURVE",
"235 270 CURVE SMOOTH",
"173 270 OFFCURVE",
"113 270 OFFCURVE",
"48 272 CURVE",
"48 200 LINE",
"153 198 OFFCURVE",
"163 198 OFFCURVE",
"220 198 CURVE SMOOTH",
"244 198 OFFCURVE",
"265 199 OFFCURVE",
"284 203 CURVE",
"317 190 OFFCURVE",
"339 168 OFFCURVE",
"339 140 CURVE SMOOTH",
"339 84 OFFCURVE",
"286 76 OFFCURVE",
"241 76 CURVE SMOOTH",
"30 76 LINE",
"30 0 LINE",
"226 0 LINE SMOOTH",
"350 0 OFFCURVE",
"414 51 OFFCURVE",
"414 129 CURVE SMOOTH",
"414 177 OFFCURVE",
"391 206 OFFCURVE",
"356 228 CURVE",
"390 250 OFFCURVE",
"408 282 OFFCURVE",
"408 323 CURVE SMOOTH",
"408 372 OFFCURVE",
"384 401 OFFCURVE",
"349 423 CURVE",
"387 448 OFFCURVE",
"402 488 OFFCURVE",
"402 523 CURVE SMOOTH",
"402 611 OFFCURVE",
"326 665 OFFCURVE",
"96 704 CURVE",
"76 637 LINE",
"288 602 OFFCURVE",
"327 567 OFFCURVE",
"327 521 CURVE SMOOTH",
"327 500 OFFCURVE",
"316 481 OFFCURVE",
"294 473 CURVE SMOOTH",
"275 466 OFFCURVE",
"247 464 OFFCURVE",
"207 464 CURVE SMOOTH",
"186 464 OFFCURVE",
"142 464 OFFCURVE",
"60 468 CURVE",
"60 397 LINE",
"104 394 OFFCURVE",
"160 392 OFFCURVE",
"184 392 CURVE SMOOTH"
);
}
);
width = 454;
}
);
unicode = 10F24;
script = "";
category = Letter;
subCategory = Other;
},
{
glyphname = u10F25;
lastChange = "2019-09-16 14:13:48 +0000";
layers = (
{
layerId = UUID0;
paths = (
{
closed = 1;
nodes = (
"134 268 OFFCURVE",
"29 167 OFFCURVE",
"29 17 CURVE SMOOTH",
"29 -50 OFFCURVE",
"48 -115 OFFCURVE",
"100 -169 CURVE",
"159 -131 LINE",
"123 -94 OFFCURVE",
"104 -35 OFFCURVE",
"104 16 CURVE SMOOTH",
"104 124 OFFCURVE",
"171 194 OFFCURVE",
"297 194 CURVE SMOOTH",
"452 194 OFFCURVE",
"598 112 OFFCURVE",
"881 13 CURVE SMOOTH",
"901 6 OFFCURVE",
"945 -1 OFFCURVE",
"962 -1 CURVE SMOOTH",
"1022 -1 OFFCURVE",
"1064 26 OFFCURVE",
"1083 60 CURVE SMOOTH",
"1103 95 OFFCURVE",
"1106 136 OFFCURVE",
"1106 235 CURVE SMOOTH",
"1106 292 OFFCURVE",
"1105 365 OFFCURVE",
"1102 426 CURVE",
"1026 422 LINE",
"1029 346 OFFCURVE",
"1030 258 OFFCURVE",
"1030 225 CURVE SMOOTH",
"1030 182 OFFCURVE",
"1029 144 OFFCURVE",
"1025 121 CURVE SMOOTH",
"1020 92 OFFCURVE",
"1004 73 OFFCURVE",
"963 73 CURVE SMOOTH",
"951 73 OFFCURVE",
"918 79 OFFCURVE",
"902 85 CURVE SMOOTH",
"712 154 OFFCURVE",
"579 211 OFFCURVE",
"471 242 CURVE",
"470 295 OFFCURVE",
"470 362 OFFCURVE",
"470 385 CURVE SMOOTH",
"470 488 LINE",
"472 490 LINE",
"501 463 LINE SMOOTH",
"548 419 OFFCURVE",
"623 325 OFFCURVE",
"668 275 CURVE SMOOTH",
"689 251 OFFCURVE",
"706 231 OFFCURVE",
"722 216 CURVE",
"792 218 LINE",
"782 244 OFFCURVE",
"773 283 OFFCURVE",
"770 296 CURVE SMOOTH",
"766 315 OFFCURVE",
"761 354 OFFCURVE",
"761 372 CURVE SMOOTH",
"761 446 OFFCURVE",
"781 494 OFFCURVE",
"833 508 CURVE",
"833 574 LINE",
"732 556 OFFCURVE",
"697 476 OFFCURVE",
"697 380 CURVE SMOOTH",
"697 376 OFFCURVE",
"698 358 OFFCURVE",
"701 347 CURVE",
"698 346 LINE",
"656 397 OFFCURVE",
"576 491 OFFCURVE",
"531 531 CURVE SMOOTH",
"504 555 OFFCURVE",
"489 567 OFFCURVE",
"456 567 CURVE SMOOTH",
"427 567 OFFCURVE",
"412 555 OFFCURVE",
"404 530 CURVE SMOOTH",
"399 514 OFFCURVE",
"397 421 OFFCURVE",
"397 386 CURVE SMOOTH",
"397 366 OFFCURVE",
"397 345 OFFCURVE",
"398 260 CURVE",
"368 266 OFFCURVE",
"341 268 OFFCURVE",
"314 268 CURVE SMOOTH"
);
}
);
width = 1156;
}
);
unicode = 10F25;
script = "";
category = Letter;
subCategory = Other;
},
{
glyphname = u10F26;
lastChange = "2019-09-16 14:13:48 +0000";
layers = (
{
layerId = UUID0;
paths = (
{
closed = 1;
nodes = (
"200 0 LINE",
"337 0 OFFCURVE",
"436 100 OFFCURVE",
"436 257 CURVE SMOOTH",
"436 344 OFFCURVE",
"411 440 OFFCURVE",
"304 440 CURVE SMOOTH",
"231 440 OFFCURVE",
"182 380 OFFCURVE",
"150 322 CURVE SMOOTH",
"-109 -149 LINE",
"-48 -180 LINE",
"217 292 LINE SMOOTH",
"240 333 OFFCURVE",
"263 371 OFFCURVE",
"301 371 CURVE SMOOTH",
"343 371 OFFCURVE",
"360 340 OFFCURVE",
"360 255 CURVE SMOOTH",
"360 157 OFFCURVE",
"311 75 OFFCURVE",
"204 71 CURVE"
);
}
);
width = 476;
}
);
unicode = 10F26;
script = "";
category = Letter;
subCategory = Other;
},
{
glyphname = u10F27;
lastChange = "2019-09-16 14:13:48 +0000";
layers = (
{
layerId = UUID0;
paths = (
{
closed = 1;
nodes = (
"413 424 OFFCURVE",
"350 423 OFFCURVE",
"286 423 CURVE SMOOTH",
"190 423 OFFCURVE",
"100 427 OFFCURVE",
"20 434 CURVE",
"20 363 LINE",
"85 356 OFFCURVE",
"180 351 OFFCURVE",
"264 351 CURVE",
"264 0 LINE",
"338 0 LINE",
"343 137 OFFCURVE",
"343 206 OFFCURVE",
"343 343 CURVE SMOOTH",
"343 351 LINE",
"363 351 OFFCURVE",
"384 351 OFFCURVE",
"399 352 CURVE",
"490 100 OFFCURVE",
"565 -17 OFFCURVE",
"734 -17 CURVE SMOOTH",
"893 -17 OFFCURVE",
"942 103 OFFCURVE",
"942 178 CURVE SMOOTH",
"942 283 OFFCURVE",
"880 349 OFFCURVE",
"766 349 CURVE SMOOTH",
"682 349 OFFCURVE",
"618 297 OFFCURVE",
"599 229 CURVE",
"653 207 LINE",
"671 247 OFFCURVE",
"711 279 OFFCURVE",
"765 279 CURVE SMOOTH",
"836 279 OFFCURVE",
"868 239 OFFCURVE",
"868 178 CURVE SMOOTH",
"868 135 OFFCURVE",
"843 55 OFFCURVE",
"741 55 CURVE SMOOTH",
"619 55 OFFCURVE",
"549 136 OFFCURVE",
"456 426 CURVE"
);
}
);
width = 972;
}
);
leftKerningGroup = u10F13;
unicode = 10F27;
script = "";
category = Letter;
subCategory = Other;
},
{
glyphname = Aleph.alt;
lastChange = "2019-09-16 14:13:48 +0000";
layers = (
{
layerId = UUID0;
paths = (
{
closed = 1;
nodes = (
"91 -2 LINE",
"128 50 OFFCURVE",
"170 123 OFFCURVE",
"199 187 CURVE",
"267 113 OFFCURVE",
"341 44 OFFCURVE",
"399 0 CURVE",
"499 0 LINE",
"501 10 LINE",
"462 43 OFFCURVE",
"422 80 OFFCURVE",
"381 118 CURVE",
"436 209 OFFCURVE",
"496 349 OFFCURVE",
"509 416 CURVE",
"437 431 LINE",
"423 372 OFFCURVE",
"373 255 OFFCURVE",
"328 169 CURVE",
"244 252 OFFCURVE",
"165 341 OFFCURVE",
"112 427 CURVE",
"42 388 LINE",
"67 346 OFFCURVE",
"103 297 OFFCURVE",
"145 247 CURVE",
"116 176 OFFCURVE",
"63 82 OFFCURVE",
"20 17 CURVE"
);
}
);
width = 539;
}
);
script = "";
category = Letter;
subCategory = Other;
},
{
glyphname = HeFin.alt;
lastChange = "2019-09-16 14:13:48 +0000";
layers = (
{
layerId = UUID0;
paths = (
{
closed = 1;
nodes = (
"20 76 LINE",
"20 0 LINE",
"586 0 LINE SMOOTH",
"664 0 OFFCURVE",
"695 44 OFFCURVE",
"695 106 CURVE SMOOTH",
"695 131 OFFCURVE",
"690 159 OFFCURVE",
"677 199 CURVE SMOOTH",
"658 258 OFFCURVE",
"625 340 OFFCURVE",
"590 426 CURVE",
"507 413 LINE",
"549 312 OFFCURVE",
"589 213 OFFCURVE",
"611 147 CURVE SMOOTH",
"615 134 OFFCURVE",
"619 116 OFFCURVE",
"619 104 CURVE SMOOTH",
"619 92 OFFCURVE",
"616 76 OFFCURVE",
"591 76 CURVE SMOOTH"
);
}
);
width = 740;
}
);
leftKerningGroup = u10F0C;
script = "";
category = Letter;
subCategory = Other;
},
{
glyphname = Lamedh.altA;
lastChange = "2019-09-16 14:13:48 +0000";
layers = (
{
layerId = UUID0;
paths = (
{
closed = 1;
nodes = (
"160 432 OFFCURVE",
"275 245 OFFCURVE",
"330 145 CURVE SMOOTH",
"337 133 OFFCURVE",
"345 116 OFFCURVE",
"345 104 CURVE SMOOTH",
"345 92 OFFCURVE",
"342 76 OFFCURVE",
"317 76 CURVE SMOOTH",
"20 76 LINE",
"20 0 LINE",
"312 0 LINE SMOOTH",
"390 0 OFFCURVE",
"421 44 OFFCURVE",
"421 106 CURVE SMOOTH",
"421 131 OFFCURVE",
"406 171 OFFCURVE",
"386 208 CURVE SMOOTH",
"332 306 OFFCURVE",
"222 478 OFFCURVE",
"140 602 CURVE SMOOTH",
"132 614 OFFCURVE",
"129 624 OFFCURVE",
"129 637 CURVE SMOOTH",
"129 653 OFFCURVE",
"137 666 OFFCURVE",
"156 689 CURVE SMOOTH",
"242 790 LINE",
"188 831 LINE",
"103 733 LINE SMOOTH",
"75 701 OFFCURVE",
"54 667 OFFCURVE",
"54 628 CURVE SMOOTH",
"54 598 OFFCURVE",
"64 575 OFFCURVE",
"79 553 CURVE SMOOTH"
);
}
);
width = 466;
}
);
leftKerningGroup = u10F0C;
rightKerningGroup = u10F0C;
script = "";
category = Letter;
subCategory = Other;
},
{
glyphname = Lamedh.altB;
lastChange = "2019-09-16 14:13:48 +0000";
layers = (
{
layerId = UUID0;
paths = (
{
closed = 1;
nodes = (
"92 484 LINE",
"119 560 OFFCURVE",
"144 629 OFFCURVE",
"165 680 CURVE",
"224 543 OFFCURVE",
"332 277 OFFCURVE",
"376 147 CURVE SMOOTH",
"380 134 OFFCURVE",
"384 116 OFFCURVE",
"384 104 CURVE SMOOTH",
"384 92 OFFCURVE",
"381 76 OFFCURVE",
"356 76 CURVE SMOOTH",
"20 76 LINE",
"20 0 LINE",
"351 0 LINE SMOOTH",
"429 0 OFFCURVE",
"460 44 OFFCURVE",
"460 106 CURVE SMOOTH",
"460 131 OFFCURVE",
"455 159 OFFCURVE",
"442 199 CURVE SMOOTH",
"395 342 OFFCURVE",
"303 554 OFFCURVE",
"254 667 CURVE SMOOTH",
"235 711 OFFCURVE",
"221 747 OFFCURVE",
"168 747 CURVE SMOOTH",
"120 747 OFFCURVE",
"103 707 OFFCURVE",
"85 665 CURVE SMOOTH",
"66 620 OFFCURVE",
"46 565 OFFCURVE",
"26 504 CURVE"
);
}
);
width = 505;
}
);
leftKerningGroup = u10F0C;
rightKerningGroup = u10F0C;
script = "";
category = Letter;
subCategory = Other;
},
{
glyphname = Samekh.alt;
lastChange = "2019-09-16 14:13:48 +0000";
layers = (
{
layerId = UUID0;
paths = (
{
closed = 1;
nodes = (
"317 356 LINE",
"350 367 OFFCURVE",
"382 371 OFFCURVE",
"410 371 CURVE SMOOTH",
"465 371 OFFCURVE",
"550 344 OFFCURVE",
"550 232 CURVE SMOOTH",
"550 112 OFFCURVE",
"462 64 OFFCURVE",
"364 64 CURVE SMOOTH",
"354 64 OFFCURVE",
"331 65 OFFCURVE",
"318 68 CURVE",
"312 0 LINE",
"330 -4 OFFCURVE",
"346 -5 OFFCURVE",
"365 -5 CURVE SMOOTH",
"534 -5 OFFCURVE",
"629 95 OFFCURVE",
"629 235 CURVE SMOOTH",
"629 358 OFFCURVE",
"544 440 OFFCURVE",
"416 440 CURVE SMOOTH",
"386 440 OFFCURVE",
"344 434 OFFCURVE",
"311 421 CURVE"
);
},
{
closed = 1;
nodes = (
"20 201 LINE",
"39 197 OFFCURVE",
"56 196 OFFCURVE",
"72 196 CURVE SMOOTH",
"192 196 OFFCURVE",
"246 278 OFFCURVE",
"246 404 CURVE SMOOTH",
"246 447 OFFCURVE",
"245 540 OFFCURVE",
"242 586 CURVE",
"170 583 LINE",
"173 526 OFFCURVE",
"174 425 OFFCURVE",
"174 400 CURVE SMOOTH",
"174 300 OFFCURVE",
"138 262 OFFCURVE",
"64 262 CURVE SMOOTH",
"55 262 OFFCURVE",
"36 263 OFFCURVE",
"20 266 CURVE"
);
}
);
width = 659;
}
);
leftKerningGroup = u10F07;
script = "";
category = Letter;
subCategory = Other;
},
{
glyphname = AyinAlt.altA;
lastChange = "2019-09-16 14:13:48 +0000";
layers = (
{
layerId = UUID0;
paths = (
{
closed = 1;
nodes = (
"15 405 LINE",
"105 113 OFFCURVE",
"187 -17 OFFCURVE",
"367 -17 CURVE SMOOTH",
"526 -17 OFFCURVE",
"575 103 OFFCURVE",
"575 178 CURVE SMOOTH",
"575 283 OFFCURVE",
"513 349 OFFCURVE",
"399 349 CURVE SMOOTH",
"315 349 OFFCURVE",
"251 297 OFFCURVE",
"232 229 CURVE",
"286 207 LINE",
"304 247 OFFCURVE",
"344 279 OFFCURVE",
"398 279 CURVE SMOOTH",
"469 279 OFFCURVE",
"501 239 OFFCURVE",
"501 178 CURVE SMOOTH",
"501 135 OFFCURVE",
"476 55 OFFCURVE",
"374 55 CURVE SMOOTH",
"246 55 OFFCURVE",
"182 136 OFFCURVE",
"89 426 CURVE"
);
}
);
width = 605;
}
);
leftKerningGroup = u10F13;
script = "";
category = Letter;
subCategory = Other;
},
{
glyphname = AyinAlt.altB;
lastChange = "2019-09-16 14:13:48 +0000";
layers = (
{
layerId = UUID0;
paths = (
{
closed = 1;
nodes = (
"243 72 LINE",
"250 99 LINE SMOOTH",
"252 106 OFFCURVE",
"253 112 OFFCURVE",
"253 117 CURVE SMOOTH",
"253 137 OFFCURVE",
"235 141 OFFCURVE",
"209 143 CURVE SMOOTH",
"177 145 LINE",
"184 171 LINE SMOOTH",
"186 178 OFFCURVE",
"187 184 OFFCURVE",
"187 189 CURVE SMOOTH",
"187 209 OFFCURVE",
"167 215 OFFCURVE",
"143 215 CURVE SMOOTH",
"110 215 LINE",
"111 219 LINE",
"138 248 OFFCURVE",
"203 312 OFFCURVE",
"263 351 CURVE",
"305 287 OFFCURVE",
"343 234 OFFCURVE",
"378 189 CURVE SMOOTH",
"497 35 OFFCURVE",
"590 -17 OFFCURVE",
"710 -17 CURVE SMOOTH",
"865 -17 OFFCURVE",
"924 103 OFFCURVE",
"924 178 CURVE SMOOTH",
"924 283 OFFCURVE",
"862 349 OFFCURVE",
"748 349 CURVE SMOOTH",
"664 349 OFFCURVE",
"600 297 OFFCURVE",
"581 229 CURVE",
"635 207 LINE",
"653 247 OFFCURVE",
"693 279 OFFCURVE",
"747 279 CURVE SMOOTH",
"818 279 OFFCURVE",
"850 239 OFFCURVE",
"850 178 CURVE SMOOTH",
"850 130 OFFCURVE",
"819 55 OFFCURVE",
"717 55 CURVE SMOOTH",
"625 55 OFFCURVE",
"561 82 OFFCURVE",
"442 233 CURVE SMOOTH",
"403 283 OFFCURVE",
"359 345 OFFCURVE",
"308 426 CURVE",
"266 426 LINE",
"185 381 OFFCURVE",
"72 275 OFFCURVE",
"49 224 CURVE SMOOTH",
"40 203 OFFCURVE",
"35 183 OFFCURVE",
"32 163 CURVE",
"118 163 LINE",
"110 139 OFFCURVE",
"101 105 OFFCURVE",
"101 91 CURVE",
"184 91 LINE",
"176 67 OFFCURVE",
"167 32 OFFCURVE",
"167 18 CURVE",
"247 18 LINE",
"239 -6 OFFCURVE",
"230 -39 OFFCURVE",
"230 -51 CURVE",
"302 -51 LINE SMOOTH",
"362 -51 OFFCURVE",
"370 -57 OFFCURVE",
"370 -73 CURVE SMOOTH",
"370 -88 OFFCURVE",
"361 -102 OFFCURVE",
"284 -132 CURVE",
"311 -180 LINE",
"386 -151 OFFCURVE",
"441 -113 OFFCURVE",
"441 -64 CURVE SMOOTH",
"441 -19 OFFCURVE",
"410 7 OFFCURVE",
"334 7 CURVE SMOOTH",
"310 7 LINE",
"316 26 LINE SMOOTH",
"318 33 OFFCURVE",
"319 39 OFFCURVE",
"319 44 CURVE SMOOTH",
"319 64 OFFCURVE",
"301 68 OFFCURVE",
"275 70 CURVE SMOOTH"
);
}
);
width = 954;
}
);
leftKerningGroup = u10F13;
script = "";
category = Letter;
subCategory = Other;
},
{
glyphname = Pe.alt;
lastChange = "2019-09-16 14:13:48 +0000";
layers = (
{
layerId = UUID0;
paths = (
{
closed = 1;
nodes = (
"124 239 LINE",
"121 249 OFFCURVE",
"119 259 OFFCURVE",
"119 271 CURVE SMOOTH",
"119 329 OFFCURVE",
"157 371 OFFCURVE",
"214 371 CURVE SMOOTH",
"267 371 OFFCURVE",
"320 343 OFFCURVE",
"320 240 CURVE SMOOTH",
"320 45 OFFCURVE",
"151 -11 OFFCURVE",
"-38 -41 CURVE",
"-38 -109 LINE",
"292 -74 OFFCURVE",
"396 80 OFFCURVE",
"396 244 CURVE SMOOTH",
"396 346 OFFCURVE",
"346 440 OFFCURVE",
"218 440 CURVE SMOOTH",
"119 440 OFFCURVE",
"43 366 OFFCURVE",
"43 272 CURVE SMOOTH",
"43 251 OFFCURVE",
"49 227 OFFCURVE",
"56 214 CURVE"
);
}
);
width = 426;
}
);
leftKerningGroup = u10F14;
rightKerningGroup = u10F14;
script = "";
category = Letter;
subCategory = Other;
},
{
glyphname = SadheFin.alt;
lastChange = "2019-09-16 14:13:48 +0000";
layers = (
{
layerId = UUID0;
paths = (
{
closed = 1;
nodes = (
"493 255 OFFCURVE",
"521 197 OFFCURVE",
"521 151 CURVE SMOOTH",
"521 99 OFFCURVE",
"482 61 OFFCURVE",
"352 61 CURVE SMOOTH",
"281 61 OFFCURVE",
"162 80 OFFCURVE",
"53 140 CURVE",
"10 77 LINE",
"127 6 OFFCURVE",
"264 -15 OFFCURVE",
"347 -15 CURVE SMOOTH",
"540 -15 OFFCURVE",
"597 66 OFFCURVE",
"597 154 CURVE SMOOTH",
"597 218 OFFCURVE",
"565 284 OFFCURVE",
"532 343 CURVE",
"562 336 OFFCURVE",
"599 332 OFFCURVE",
"635 332 CURVE SMOOTH",
"698 332 OFFCURVE",
"769 343 OFFCURVE",
"811 361 CURVE",
"811 432 LINE",
"806 432 LINE",
"767 418 OFFCURVE",
"707 404 OFFCURVE",
"650 404 CURVE SMOOTH",
"619 404 OFFCURVE",
"580 407 OFFCURVE",
"554 412 CURVE SMOOTH",
"517 419 OFFCURVE",
"501 426 OFFCURVE",
"472 426 CURVE SMOOTH",
"449 426 OFFCURVE",
"431 410 OFFCURVE",
"431 387 CURVE SMOOTH",
"431 377 OFFCURVE",
"433 367 OFFCURVE",
"440 353 CURVE SMOOTH"
);
}
);
width = 831;
}
);
leftKerningGroup = u10F15;
script = "";
category = Letter;
subCategory = Other;
},
{
glyphname = Taw.alt;
lastChange = "2019-09-16 14:13:48 +0000";
layers = (
{
layerId = UUID0;
paths = (
{
closed = 1;
nodes = (
"322 351 LINE",
"355 362 OFFCURVE",
"387 366 OFFCURVE",
"415 366 CURVE SMOOTH",
"470 366 OFFCURVE",
"555 344 OFFCURVE",
"555 232 CURVE SMOOTH",
"555 112 OFFCURVE",
"467 64 OFFCURVE",
"369 64 CURVE SMOOTH",
"359 64 OFFCURVE",
"336 65 OFFCURVE",
"323 68 CURVE",
"317 0 LINE",
"335 -4 OFFCURVE",
"351 -5 OFFCURVE",
"370 -5 CURVE SMOOTH",
"539 -5 OFFCURVE",
"634 95 OFFCURVE",
"634 235 CURVE SMOOTH",
"634 358 OFFCURVE",
"549 435 OFFCURVE",
"421 435 CURVE SMOOTH",
"391 435 OFFCURVE",
"349 429 OFFCURVE",
"316 416 CURVE"
);
},
{
closed = 1;
nodes = (
"20 0 LINE",
"39 -4 OFFCURVE",
"56 -5 OFFCURVE",
"72 -5 CURVE SMOOTH",
"190 -5 OFFCURVE",
"246 64 OFFCURVE",
"246 207 CURVE SMOOTH",
"246 250 OFFCURVE",
"245 427 OFFCURVE",
"242 473 CURVE",
"170 470 LINE",
"173 413 OFFCURVE",
"174 234 OFFCURVE",
"174 209 CURVE SMOOTH",
"174 89 OFFCURVE",
"138 61 OFFCURVE",
"64 61 CURVE SMOOTH",
"55 61 OFFCURVE",
"36 62 OFFCURVE",
"20 65 CURVE"
);
}
);
width = 664;
}
);
leftKerningGroup = u10F07;
rightKerningGroup = u10F1A;
script = "";
category = Letter;
subCategory = Other;
},
{
glyphname = TawFin.alt;
lastChange = "2019-09-16 14:13:48 +0000";
layers = (
{
layerId = UUID0;
paths = (
{
closed = 1;
nodes = (
"582 -15 OFFCURVE",
"645 136 OFFCURVE",
"645 336 CURVE",
"763 336 LINE SMOOTH",
"870 336 OFFCURVE",
"882 286 OFFCURVE",
"882 223 CURVE SMOOTH",
"882 108 OFFCURVE",
"790 63 OFFCURVE",
"682 63 CURVE SMOOTH",
"669 63 LINE",
"669 -1 LINE",
"681 -2 OFFCURVE",
"694 -2 OFFCURVE",
"706 -2 CURVE SMOOTH",
"838 -2 OFFCURVE",
"961 66 OFFCURVE",
"961 235 CURVE SMOOTH",
"961 338 OFFCURVE",
"920 407 OFFCURVE",
"772 407 CURVE SMOOTH",
"632 407 LINE",
"627 452 LINE",
"554 449 LINE",
"555 407 OFFCURVE",
"562 361 OFFCURVE",
"566 336 CURVE",
"566 176 OFFCURVE",
"531 61 OFFCURVE",
"354 61 CURVE SMOOTH",
"281 61 OFFCURVE",
"162 80 OFFCURVE",
"53 140 CURVE",
"10 77 LINE",
"127 6 OFFCURVE",
"259 -15 OFFCURVE",
"342 -15 CURVE SMOOTH"
);
}
);
width = 1001;
}
);
leftKerningGroup = u10F1A;
script = "";
category = Letter;
subCategory = Other;
},
{
glyphname = TawFinV.alt;
lastChange = "2019-09-16 14:13:48 +0000";
layers = (
{
layerId = UUID0;
paths = (
{
closed = 1;
nodes = (
"227 356 LINE",
"260 367 OFFCURVE",
"292 371 OFFCURVE",
"320 371 CURVE SMOOTH",
"375 371 OFFCURVE",
"460 344 OFFCURVE",
"460 232 CURVE SMOOTH",
"460 112 OFFCURVE",
"372 64 OFFCURVE",
"274 64 CURVE SMOOTH",
"264 64 OFFCURVE",
"241 65 OFFCURVE",
"228 68 CURVE",
"222 0 LINE",
"240 -4 OFFCURVE",
"256 -5 OFFCURVE",
"275 -5 CURVE SMOOTH",
"444 -5 OFFCURVE",
"539 95 OFFCURVE",
"539 235 CURVE SMOOTH",
"539 358 OFFCURVE",
"454 440 OFFCURVE",
"326 440 CURVE SMOOTH",
"296 440 OFFCURVE",
"254 434 OFFCURVE",
"221 421 CURVE"
);
},
{
closed = 1;
nodes = (
"136 -175 LINE",
"141 -38 OFFCURVE",
"141 57 OFFCURVE",
"141 194 CURVE SMOOTH",
"141 207 OFFCURVE",
"141 406 OFFCURVE",
"131 473 CURVE",
"55 470 LINE",
"61 395 OFFCURVE",
"62 215 OFFCURVE",
"62 174 CURVE SMOOTH",
"62 -175 LINE"
);
}
);
width = 569;
}
);
leftKerningGroup = u10F07;
script = "";
category = Letter;
subCategory = Other;
},
{
glyphname = Kaph.cut;
lastChange = "2019-09-16 14:13:48 +0000";
layers = (
{
layerId = UUID0;
paths = (
{
closed = 1;
nodes = (
"21 -165 LINE",
"183 -155 OFFCURVE",
"286 -52 OFFCURVE",
"360 100 CURVE SMOOTH",
"409 201 OFFCURVE",
"445 316 OFFCURVE",
"464 417 CURVE",
"392 426 LINE",
"380 366 OFFCURVE",
"361 298 OFFCURVE",
"337 233 CURVE",
"200 234 OFFCURVE",
"149 342 OFFCURVE",
"133 434 CURVE",
"57 416 LINE",
"77 293 OFFCURVE",
"136 176 OFFCURVE",
"308 162 CURVE",
"250 29 OFFCURVE",
"169 -81 OFFCURVE",
"21 -94 CURVE"
);
}
);
width = 488;
}
);
leftKerningGroup = u10F0B;
script = "";
category = Letter;
subCategory = Other;
},
{
glyphname = Pe.cut;
lastChange = "2019-09-16 14:13:48 +0000";
layers = (
{
layerId = UUID0;
paths = (
{
closed = 1;
nodes = (
"20 -109 LINE",
"312 -65 OFFCURVE",
"404 88 OFFCURVE",
"404 244 CURVE SMOOTH",
"404 346 OFFCURVE",
"354 440 OFFCURVE",
"226 440 CURVE SMOOTH",
"127 440 OFFCURVE",
"51 366 OFFCURVE",
"51 272 CURVE SMOOTH",
"51 158 OFFCURVE",
"138 96 OFFCURVE",
"272 96 CURVE SMOOTH",
"286 96 LINE",
"247 41 OFFCURVE",
"175 -11 OFFCURVE",
"20 -41 CURVE"
);
},
{
closed = 1;
nodes = (
"328 219 OFFCURVE",
"326 190 OFFCURVE",
"318 167 CURVE",
"270 167 LINE SMOOTH",
"193 167 OFFCURVE",
"127 195 OFFCURVE",
"127 271 CURVE SMOOTH",
"127 329 OFFCURVE",
"165 371 OFFCURVE",
"222 371 CURVE SMOOTH",
"275 371 OFFCURVE",
"328 343 OFFCURVE",
"328 240 CURVE SMOOTH"
);
}
);
width = 434;
}
);
leftKerningGroup = u10F14;
rightKerningGroup = Pe.cut;
script = "";
category = Letter;
subCategory = Other;
},
{
glyphname = Pe.altcut;
lastChange = "2019-09-16 14:13:48 +0000";
layers = (
{
layerId = UUID0;
paths = (
{
closed = 1;
nodes = (
"132 239 LINE",
"129 249 OFFCURVE",
"127 259 OFFCURVE",
"127 271 CURVE SMOOTH",
"127 329 OFFCURVE",
"165 371 OFFCURVE",
"222 371 CURVE SMOOTH",
"275 371 OFFCURVE",
"328 343 OFFCURVE",
"328 240 CURVE SMOOTH",
"328 81 OFFCURVE",
"219 -3 OFFCURVE",
"20 -41 CURVE",
"20 -109 LINE",
"311 -65 OFFCURVE",
"404 88 OFFCURVE",
"404 244 CURVE SMOOTH",
"404 346 OFFCURVE",
"354 440 OFFCURVE",
"226 440 CURVE SMOOTH",
"127 440 OFFCURVE",
"51 366 OFFCURVE",
"51 272 CURVE SMOOTH",
"51 251 OFFCURVE",
"57 227 OFFCURVE",
"64 214 CURVE"
);
}
